<?xml version="1.0" standalone="no"?>
<!DOCTYPE svg PUBLIC "-//W3C//DTD SVG 20010904//EN"
 "http://www.w3.org/TR/2001/REC-SVG-20010904/DTD/svg10.dtd">
<svg version="1.0" xmlns="http://www.w3.org/2000/svg"
 width="2231.000000pt" height="2231.000000pt" viewBox="0 0 2231.000000 2231.000000"
 preserveAspectRatio="xMidYMid meet">
<metadata>
Created by potrace 1.11, written by Peter Selinger 2001-2013
</metadata>
<g transform="translate(0.000000,2231.000000) scale(0.100000,-0.100000)"
fill="#000000" stroke="none">
<path d="M11266 22197 c-16 -51 -41 -132 -57 -182 -75 -244 -448 -1458 -494
-1610 -29 -98 -154 -504 -320 -1045 -31 -102 -77 -250 -102 -330 -49 -159 -82
-267 -88 -290 -2 -8 -10 -34 -19 -58 -8 -23 -16 -44 -16 -47 -1 -6 -1 -9 -38
-130 -68 -227 -115 -371 -123 -380 -4 -6 -25 -12 -46 -13 -21 -2 -54 -7 -73
-12 -19 -5 -55 -12 -80 -15 -25 -4 -67 -11 -95 -16 -27 -6 -61 -13 -75 -15
-14 -3 -81 -19 -150 -35 -69 -17 -136 -33 -150 -35 -82 -17 -514 -148 -609
-186 -14 -6 -35 -14 -46 -18 -384 -144 -719 -296 -1012 -462 -57 -32 -107 -58
-112 -58 -5 0 -11 -3 -13 -8 -1 -4 -48 -34 -103 -66 -194 -115 -509 -331 -675
-463 -188 -149 -323 -265 -470 -403 -107 -100 -316 -308 -357 -356 -10 -12
-48 -54 -85 -95 -81 -90 -194 -223 -228 -268 -14 -18 -30 -38 -36 -45 -69 -74
-400 -547 -470 -671 -6 -11 -33 -56 -59 -100 -290 -482 -530 -1035 -699 -1608
-60 -202 -135 -514 -152 -627 -3 -19 -7 -43 -10 -52 -6 -21 -9 -36 -24 -128
-6 -41 -14 -86 -16 -100 -2 -14 -7 -45 -10 -70 -3 -25 -7 -52 -9 -60 -2 -8 -7
-49 -11 -90 -3 -41 -8 -77 -9 -80 -2 -3 -6 -45 -10 -95 -4 -49 -9 -106 -11
-125 -22 -217 -22 -878 1 -1080 2 -19 6 -66 9 -105 4 -38 8 -81 10 -95 2 -14
7 -52 10 -85 8 -77 16 -134 21 -164 2 -13 7 -45 11 -70 4 -25 8 -55 11 -66 2
-11 6 -38 9 -60 3 -22 7 -46 10 -54 3 -8 7 -30 10 -50 3 -20 12 -67 21 -106 8
-38 17 -81 19 -95 10 -48 93 -375 113 -440 88 -296 207 -624 303 -840 84 -188
263 -552 288 -585 4 -5 24 -41 45 -80 21 -38 42 -76 48 -83 5 -7 17 -26 26
-42 55 -100 232 -371 351 -535 93 -128 277 -364 309 -396 9 -9 27 -29 40 -45
129 -154 400 -436 551 -574 19 -17 55 -51 80 -74 37 -34 314 -266 370 -309
440 -341 958 -652 1445 -866 66 -29 134 -59 150 -66 332 -146 891 -319 1300
-401 148 -30 363 -66 471 -79 22 -3 73 -9 114 -15 41 -5 109 -12 150 -15 41
-4 86 -8 100 -10 171 -25 907 -26 1130 0 19 2 69 6 110 10 41 3 89 8 105 10
17 2 53 7 80 10 28 3 61 7 75 10 14 2 45 7 70 10 25 3 55 7 67 9 11 3 43 8 70
11 74 11 481 95 509 105 13 5 24 8 24 5 0 -2 19 3 42 11 23 8 53 16 67 19 40
7 283 79 406 120 317 107 520 190 890 365 205 97 519 278 770 445 163 108 485
340 505 364 3 3 39 33 80 66 41 33 80 65 86 70 6 6 42 37 79 70 112 97 212
191 350 331 159 159 202 206 366 394 55 63 253 316 325 415 103 141 374 554
374 570 0 2 16 31 35 63 92 158 244 458 325 642 23 52 46 104 50 115 145 329
330 919 396 1260 5 22 9 42 9 45 2 7 17 81 21 105 10 52 54 315 59 355 3 25 8
56 10 70 2 14 6 52 10 85 3 33 8 78 10 100 31 277 44 730 30 1000 -12 229 -28
425 -40 495 -2 14 -7 48 -10 75 -51 469 -190 1035 -380 1550 -131 354 -341
803 -486 1038 -16 26 -29 50 -29 53 0 3 -13 26 -30 51 -16 24 -30 46 -30 48 0
12 -183 292 -277 424 -30 42 -62 87 -71 99 -214 300 -642 774 -937 1039 -412
369 -855 682 -1350 955 -72 39 -452 228 -460 228 -2 0 -28 11 -57 24 -189 85
-393 163 -638 244 -160 53 -443 135 -505 146 -11 2 -47 11 -80 19 -87 23 -341
73 -485 96 -128 21 -167 27 -255 36 -27 4 -61 8 -75 10 -14 2 -61 7 -105 11
-44 3 -87 8 -96 9 -138 26 -905 26 -1164 0 -22 -2 -69 -7 -105 -10 -62 -6 -93
-9 -180 -20 -90 -11 -125 -17 -135 -22 -17 -8 64 66 211 194 12 10 51 45 87
77 278 250 585 368 931 361 72 -2 140 -5 151 -8 11 -2 41 -7 66 -11 76 -11 93
-15 184 -41 181 -53 278 -100 513 -248 83 -53 152 -94 152 -90 0 7 -133 507
-265 998 -99 366 -154 574 -159 595 -4 15 -139 521 -196 730 -17 63 -33 123
-35 133 -2 10 -7 27 -10 37 -3 10 -8 27 -10 37 -13 56 -47 182 -55 203 -5 14
-12 36 -14 50 -3 14 -13 52 -22 85 -9 33 -18 67 -19 75 -4 17 -76 286 -130
485 -97 358 -125 466 -125 480 0 7 -4 16 -8 19 -4 2 -21 -37 -36 -87z"/>
<path d="M5770 20533 c0 -4 7 -44 16 -88 8 -44 17 -91 20 -105 4 -21 10 -53
20 -95 5 -23 97 -468 114 -555 10 -52 35 -171 55 -264 19 -93 38 -183 40 -200
3 -17 8 -38 10 -46 2 -8 7 -31 10 -50 3 -19 13 -64 21 -100 8 -36 17 -81 20
-100 3 -19 9 -51 14 -70 5 -19 11 -46 14 -60 4 -22 15 -77 31 -150 5 -25 42
-208 49 -245 4 -19 62 -300 70 -340 3 -11 14 -65 25 -120 11 -55 34 -165 50
-245 17 -80 33 -157 36 -172 6 -33 9 -48 41 -203 13 -66 29 -142 35 -168 l11
-49 86 144 c96 162 148 233 236 322 168 171 348 279 554 333 77 20 126 26 237
29 176 3 188 1 537 -97 114 -33 210 -59 214 -59 3 0 -7 13 -23 29 -23 23 -136
144 -263 281 -14 15 -72 78 -130 140 -58 62 -118 127 -134 144 -102 111 -261
281 -317 341 -37 38 -77 82 -90 96 -25 27 -202 218 -274 295 -22 23 -78 84
-125 134 -47 51 -102 111 -124 134 -193 206 -250 268 -265 285 -15 17 -70 77
-290 310 -18 20 -58 63 -89 96 -30 33 -104 112 -163 175 -58 63 -121 131 -139
150 -103 112 -140 150 -140 143z"/>
<path d="M17074 20054 c-33 -31 -261 -244 -379 -354 -75 -71 -202 -190 -250
-235 -12 -11 -77 -72 -145 -135 -67 -63 -134 -126 -149 -139 -14 -13 -62 -58
-107 -100 -44 -42 -132 -124 -195 -182 -203 -190 -387 -362 -518 -485 -42 -39
-88 -82 -102 -95 -15 -13 -82 -76 -150 -140 -68 -64 -140 -131 -159 -149 -19
-18 -91 -85 -159 -149 -68 -64 -135 -127 -150 -140 -126 -115 -251 -235 -248
-237 1 -2 23 2 47 7 25 6 56 13 70 15 14 3 75 16 137 29 116 25 128 28 203 40
25 4 54 9 65 11 45 9 235 5 300 -6 255 -41 470 -165 675 -386 78 -84 142 -183
226 -348 45 -87 83 -155 86 -150 3 5 9 23 13 39 5 17 10 35 11 40 10 31 207
736 224 800 5 17 18 64 30 105 12 41 28 98 35 125 7 28 28 100 45 160 18 61
34 121 36 134 3 14 7 28 10 33 3 4 7 17 9 29 2 11 25 94 51 182 26 89 52 185
59 212 7 28 29 109 50 180 61 214 96 339 99 355 2 9 51 184 109 390 125 443
157 563 153 567 -2 2 -16 -9 -32 -23z"/>
<path d="M2052 17293 c8 -10 22 -27 31 -38 22 -28 190 -229 242 -290 23 -27
70 -84 104 -125 34 -41 72 -86 84 -100 12 -14 42 -50 67 -80 25 -30 47 -57 50
-60 3 -3 73 -86 155 -185 83 -99 160 -191 172 -205 30 -35 53 -62 89 -107 24
-29 414 -495 543 -648 9 -11 86 -103 171 -205 85 -102 157 -187 160 -190 3 -3
25 -30 50 -60 25 -30 52 -63 60 -72 8 -9 69 -82 135 -161 66 -80 121 -144 122
-143 2 1 5 49 8 107 13 268 25 352 69 491 99 310 311 563 580 692 56 26 152
63 186 71 323 71 508 115 478 115 -3 0 -205 68 -449 151 -390 132 -959 325
-1119 379 -30 10 -282 96 -560 190 -278 94 -557 189 -620 210 -63 22 -274 93
-469 160 -235 80 -349 114 -339 103z"/>
<path d="M20350 16788 c-30 -11 -280 -97 -555 -190 -275 -93 -606 -205 -735
-249 -129 -44 -293 -100 -365 -124 -831 -282 -1055 -358 -1145 -390 -58 -20
-125 -43 -150 -50 -80 -23 -525 -177 -532 -184 -4 -4 0 -7 10 -8 38 -3 432
-95 502 -117 343 -108 593 -360 720 -726 13 -36 26 -81 30 -100 32 -147 36
-181 45 -385 4 -71 7 -131 9 -133 2 -1 115 131 252 295 136 164 258 309 270
323 13 14 98 115 189 225 92 110 188 224 213 254 26 30 53 63 61 75 8 11 18
23 21 26 4 3 46 52 94 110 86 101 105 124 213 255 39 47 235 281 394 469 52
63 207 247 239 286 185 223 266 318 283 338 26 28 12 28 -63 0z"/>
<path d="M18166 13178 c4 -7 68 -87 143 -178 222 -271 283 -375 336 -575 54
-201 32 -472 -56 -699 -38 -99 -121 -256 -163 -307 -11 -14 -28 -36 -36 -48
-8 -13 -32 -46 -53 -74 -43 -57 -64 -92 -50 -84 5 3 65 18 134 32 118 25 353
73 392 81 10 2 26 5 35 8 9 3 28 7 42 10 14 2 93 18 175 36 83 18 161 34 175
36 21 4 51 10 95 20 6 1 24 5 40 8 17 3 91 19 165 35 74 16 146 32 160 34 14
3 70 15 126 26 55 12 109 23 120 25 10 3 39 9 64 15 25 5 59 12 75 15 49 9 78
15 125 25 100 22 576 122 740 156 96 19 191 39 210 45 19 5 51 12 70 15 48 8
486 103 480 104 -9 2 -580 202 -685 241 -33 12 -71 25 -85 30 -14 4 -97 34
-185 65 -326 116 -502 178 -580 205 -76 27 -203 72 -555 197 -85 30 -166 58
-180 63 -14 4 -153 54 -310 110 -157 56 -296 105 -310 108 -14 2 -29 8 -35 12
-5 3 -66 26 -135 49 -69 24 -134 46 -145 51 -11 5 -33 13 -50 18 -16 6 -88 31
-159 56 -144 52 -140 51 -130 34z"/>
<path d="M4040 13101 c-58 -21 -112 -41 -120 -44 -8 -3 -89 -31 -180 -62 -91
-32 -241 -84 -335 -117 -93 -32 -190 -66 -215 -74 -25 -8 -54 -19 -65 -24 -11
-5 -94 -34 -185 -66 -91 -31 -235 -81 -320 -111 -85 -30 -186 -66 -225 -78
-38 -13 -108 -38 -155 -55 -47 -17 -110 -40 -140 -50 -30 -10 -147 -50 -260
-90 -113 -39 -261 -91 -330 -115 -69 -24 -197 -69 -285 -100 -195 -69 -356
-125 -495 -172 -58 -20 -108 -39 -113 -43 -6 -5 107 -34 223 -56 14 -3 86 -18
160 -34 74 -16 210 -45 302 -65 93 -19 243 -51 335 -71 93 -20 177 -38 188
-40 11 -2 29 -6 40 -8 11 -3 88 -19 170 -36 83 -18 159 -34 170 -37 19 -4 87
-19 130 -27 11 -3 85 -18 165 -35 80 -17 154 -33 165 -35 11 -3 43 -9 70 -16
28 -6 133 -29 235 -50 102 -22 217 -46 255 -55 39 -8 84 -18 100 -21 17 -3 68
-14 115 -24 47 -10 121 -26 165 -35 44 -10 87 -18 95 -20 122 -27 306 -65 317
-65 11 0 9 7 -7 28 -51 64 -180 251 -180 260 0 6 -4 12 -8 14 -9 4 -72 132
-102 209 -48 121 -83 312 -81 449 2 254 88 475 275 705 129 159 219 269 233
283 29 30 23 29 -107 -17z"/>
<path d="M18383 9585 c16 -52 101 -348 118 -410 17 -65 22 -88 35 -177 10 -72
5 -231 -11 -314 -16 -84 -50 -198 -65 -219 -4 -5 -11 -21 -15 -34 -22 -71
-146 -249 -246 -351 -104 -106 -218 -189 -437 -315 -9 -6 -24 -14 -32 -19 -12
-8 93 -34 287 -70 13 -3 58 -12 100 -20 43 -9 87 -18 98 -20 11 -2 144 -29
295 -60 151 -30 286 -57 300 -59 14 -3 57 -12 95 -20 90 -20 220 -45 265 -52
19 -3 51 -10 70 -15 28 -8 180 -38 375 -76 11 -2 29 -6 40 -8 63 -13 274 -56
295 -59 14 -3 138 -28 275 -56 138 -27 261 -52 275 -55 14 -2 81 -16 150 -30
69 -14 136 -27 150 -30 14 -2 70 -14 125 -25 55 -12 122 -25 148 -31 27 -5 54
-10 62 -10 10 0 -73 86 -141 145 -26 23 -320 294 -485 447 -63 59 -124 115
-136 125 -11 10 -71 65 -133 123 -62 58 -122 113 -134 123 -12 10 -46 42 -76
70 -30 29 -109 102 -175 162 -66 61 -129 119 -140 130 -12 11 -66 61 -120 110
-54 50 -108 99 -119 110 -12 11 -75 70 -141 130 -66 61 -131 121 -146 135 -14
14 -67 63 -118 109 -50 46 -109 101 -131 121 -22 20 -81 75 -131 121 -51 46
-111 102 -134 124 -23 22 -82 76 -131 120 -48 44 -97 89 -109 100 -11 11 -29
27 -39 35 -17 14 -18 13 -13 -5z"/>
<path d="M3800 8842 c-77 -69 -170 -152 -240 -212 -14 -12 -41 -36 -60 -53
-19 -18 -66 -59 -105 -92 -38 -33 -76 -67 -85 -75 -9 -8 -32 -28 -51 -45 -62
-54 -193 -169 -229 -201 -19 -18 -210 -186 -425 -374 -214 -188 -406 -357
-425 -374 -19 -17 -89 -78 -155 -136 -66 -58 -122 -107 -125 -110 -3 -3 -77
-68 -165 -145 -88 -77 -162 -142 -165 -145 -3 -3 -23 -21 -45 -40 -47 -41
-184 -162 -229 -203 -30 -28 -30 -28 -6 -23 21 5 223 40 285 50 47 8 103 18
145 26 25 5 59 11 75 14 17 2 82 13 145 25 63 11 131 23 150 26 19 3 58 10 85
15 28 5 66 12 85 15 19 3 82 14 140 25 58 10 125 22 150 25 24 4 47 8 50 10 3
2 23 6 45 9 22 4 90 15 150 26 61 11 128 22 150 25 22 4 47 8 55 10 8 3 32 7
54 11 21 3 48 8 60 10 11 2 46 8 76 13 57 10 232 41 380 67 47 8 108 19 135
24 28 4 61 11 75 14 14 3 41 8 60 10 19 3 60 10 90 16 30 6 69 13 85 16 17 2
80 13 140 24 61 11 126 22 145 25 19 3 109 19 200 36 177 32 194 35 255 44 22
3 83 14 135 24 l95 18 -35 14 c-19 9 -64 26 -100 39 -36 13 -69 27 -74 32 -6
4 -16 8 -23 8 -7 0 -32 9 -56 19 -23 10 -73 31 -112 46 -291 111 -513 329
-628 615 -29 73 -63 194 -72 255 -3 22 -8 54 -11 72 -9 49 -11 229 -3 286 3
29 10 88 13 132 4 44 9 92 12 108 2 15 1 27 -3 27 -5 -1 -46 -36 -93 -78z"/>
<path d="M16399 5607 c-42 -134 -135 -390 -170 -465 -82 -178 -210 -330 -369
-439 -79 -54 -193 -108 -303 -144 -115 -37 -317 -68 -420 -63 -53 2 -251 14
-295 19 -18 1 -32 -1 -30 -5 3 -7 124 -137 301 -324 27 -28 108 -114 180 -190
73 -76 150 -158 172 -181 205 -215 338 -356 365 -385 18 -19 94 -100 170 -180
76 -80 157 -165 180 -190 23 -25 108 -115 190 -200 81 -85 162 -171 180 -190
18 -19 96 -102 174 -184 77 -82 157 -166 176 -186 248 -262 304 -320 307 -317
2 2 -13 78 -32 168 -20 90 -49 225 -64 299 -16 74 -48 223 -71 330 -23 107
-43 202 -45 210 -2 8 -22 101 -44 206 -23 105 -43 200 -45 210 -12 60 -138
645 -146 674 -5 19 -11 49 -14 65 -5 29 -29 140 -141 660 -31 143 -59 271 -61
285 -2 14 -11 54 -19 90 -36 162 -76 349 -81 376 -6 35 -24 104 -27 104 -1 0
-9 -24 -18 -53z"/>
<path d="M6308 5324 c-23 -51 -160 -350 -240 -524 -14 -30 -53 -113 -86 -185
-33 -71 -76 -166 -97 -210 -20 -44 -45 -98 -55 -120 -15 -33 -243 -530 -340
-740 -24 -53 -68 -148 -177 -385 -17 -36 -40 -87 -53 -115 -26 -58 -124 -271
-182 -395 -22 -47 -54 -116 -71 -155 -18 -38 -55 -119 -83 -180 -28 -60 -50
-111 -49 -113 2 -2 95 58 207 134 874 591 1413 954 1773 1195 126 85 234 158
240 162 9 7 465 314 772 520 68 45 123 85 123 88 0 4 -15 5 -32 4 -57 -6 -370
-18 -443 -18 -370 -1 -670 155 -905 468 -88 118 -149 243 -215 444 l-61 184
-26 -59z"/>
<path d="M10010 4205 c0 -3 9 -34 19 -68 11 -34 36 -116 56 -182 20 -66 56
-183 80 -260 24 -77 58 -187 75 -245 18 -58 51 -168 75 -245 75 -243 197 -639
200 -655 3 -8 39 -125 81 -260 42 -135 84 -272 94 -305 10 -33 34 -112 53
-175 39 -124 111 -360 232 -755 42 -137 92 -299 110 -360 19 -60 74 -239 122
-397 68 -223 89 -283 96 -266 4 12 26 90 48 173 21 82 48 184 60 225 26 97 99
370 104 390 6 26 94 354 105 390 8 29 133 495 187 700 12 47 37 142 148 555 9
33 18 67 20 75 2 8 26 98 54 200 27 102 61 230 76 285 14 55 40 150 56 210 16
61 31 117 33 125 2 8 14 50 25 93 30 111 58 216 80 300 10 39 26 98 36 130 9
32 15 60 13 63 -3 2 -79 -43 -170 -100 -92 -58 -200 -121 -242 -140 -94 -44
-252 -100 -331 -116 -33 -7 -64 -13 -70 -15 -5 -1 -32 -5 -60 -9 -27 -4 -61
-10 -75 -12 -39 -6 -229 -5 -285 1 -231 28 -415 101 -635 252 -25 17 -300 255
-375 324 -53 49 -95 82 -95 74z"/>
</g>
</svg>
